<?xml version="1.0" encoding="UTF-8" standalone="no" ?>
<!DOCTYPE svg PUBLIC "-//W3C//DTD SVG 1.1//EN" "http://www.w3.org/Graphics/SVG/1.1/DTD/svg11.dtd">
<svg xmlns="http://www.w3.org/2000/svg" xmlns:xlink="http://www.w3.org/1999/xlink" version="1.1" width="491" height="491" viewBox="0 0 491 491" xml:space="preserve">
<desc>Created with Fabric.js 5.3.0</desc>
<defs>
</defs>
<g transform="matrix(1.2365911531 0 0 1.2497230647 256.0094162951 245.5)" id="XSaekHrC-or1f5NyrXpQn"  >
<path style="stroke: none; stroke-width: 1; stroke-dasharray: none; stroke-linecap: butt; stroke-dashoffset: 0; stroke-linejoin: miter; stroke-miterlimit: 4; fill: rgb(255,255,255); fill-rule: nonzero; opacity: 1;" vector-effect="non-scaling-stroke"  transform=" translate(-205.5, -39.7)" d="M 262 0 L 330.5 0 L 330.5 12.7 L 303.3 12.7 L 303.3 79.3 L 289.7 79.3 L 289.7 12.7 L 262 12.7 L 262 0 Z M 149 0 L 149 12.7 L 94 12.7 L 94 33.099999999999994 L 138.3 33.099999999999994 L 138.3 45.699999999999996 L 94 45.699999999999996 L 94 66.69999999999999 L 149 66.69999999999999 L 149 79.29999999999998 L 80.5 79.29999999999998 L 80.5 0 L 149.2 0 z M 183.3 0 L 165.5 0 L 229.3 79.4 L 247.20000000000002 79.4 L 215.20000000000002 39.7 L 247.20000000000002 0.10000000000000142 L 229.3 0.10000000000000142 L 206.3 28.700000000000003 L 183.3 0.10000000000000142 z M 201.60000000000002 56.7 L 192.60000000000002 45.7 L 165.50000000000003 79.4 L 183.30000000000004 79.4 L 201.60000000000005 56.7 z" stroke-linecap="round" />
</g>
<g transform="matrix(1.2365911531 0 0 1.2497230647 245.5 245.4375138468)" id="JLU-T-8rbhCMUExsfGPgJ"  >
<path style="stroke: none; stroke-width: 1; stroke-dasharray: none; stroke-linecap: butt; stroke-dashoffset: 0; stroke-linejoin: miter; stroke-miterlimit: 4; fill: rgb(255,255,255); fill-rule: nonzero; opacity: 1;" vector-effect="non-scaling-stroke"  transform=" translate(-197.0013007582, -39.65)" d="M 81 79.3 L 17 0 L 0 0 L 0 79.3 L 13.6 79.3 L 13.6 17 L 63.800000000000004 79.3 L 81 79.3 Z M 333.6 78.89999999999999 C 332.6 78.89999999999999 331.8 78.49999999999999 331.1 77.89999999999999 C 330.40000000000003 77.3 330 76.3 330 75.3 C 330 74.3 330.3 73.5 331 72.8 C 331.7 72.1 332.6 71.8 333.6 71.8 C 334.6 71.8 335.40000000000003 72.1 336.1 72.8 C 337.30824791573775 73.90243213177493 337.56031750198235 75.70893083319436 336.70000000000005 77.1 C 336.0647471766637 78.16474438526429 334.9384228450386 78.84053898423933 333.70000000000005 78.89999999999999 z M 356.8 45.39999999999999 L 362.8 45.39999999999999 L 362.8 68.69999999999999 C 362.8 70.79999999999998 362.40000000000003 72.69999999999999 361.5 74.19999999999999 C 360.5980551186077 75.70927313976507 359.2781912629449 76.9249372173492 357.7 77.69999999999999 C 356.09999999999997 78.49999999999999 354.2 78.99999999999999 352 78.99999999999999 C 350 78.99999999999999 348.3 78.59999999999998 346.7 77.99999999999999 C 345.09999999999997 77.39999999999999 343.9 76.19999999999999 343 74.79999999999998 C 342.1 73.49999999999999 341.6 71.79999999999998 341.6 69.79999999999998 L 347.6 69.79999999999998 C 347.70000000000005 70.59999999999998 347.90000000000003 71.39999999999998 348.3 71.99999999999999 C 348.7 72.6 349.3 73.19999999999999 349.90000000000003 73.49999999999999 C 350.6 73.89999999999999 351.40000000000003 73.99999999999999 352.3 73.99999999999999 C 353.3 73.99999999999999 354.1 73.79999999999998 354.7 73.39999999999999 C 355.40558217825514 72.97861393888086 355.9642434774426 72.35011997729495 356.3 71.6 C 356.6 70.8 356.8 69.8 356.8 68.6 L 356.8 45.5 z M 387.7 54.49999999999999 C 387.5769588248056 53.150745964010675 386.8391806298166 51.93341194227886 385.7 51.199999999999996 C 384.4104750919266 50.407897177023166 382.9114864526329 50.02443496697129 381.4 50.099999999999994 C 380.09999999999997 50.099999999999994 379 50.3 378.09999999999997 50.599999999999994 C 377.2 50.99999999999999 376.49999999999994 51.599999999999994 376.09999999999997 52.199999999999996 C 375.17009294221333 53.33810140832228 375.05025618959525 54.935924776563354 375.79999999999995 56.199999999999996 C 376.09999999999997 56.699999999999996 376.49999999999994 57.099999999999994 377.09999999999997 57.4 L 378.9 58.4 L 380.9 58.9 L 384.09999999999997 59.699999999999996 C 385.4 59.99999999999999 386.59999999999997 60.4 387.79999999999995 60.9 C 388.9464492701192 61.345594060857515 390.0238584219648 61.95163670877065 390.99999999999994 62.699999999999996 C 392.95515952657985 64.28321025333058 394.06368496349046 66.6850153666369 393.99999999999994 69.19999999999999 C 393.99999999999994 71.19999999999999 393.49999999999994 72.89999999999999 392.49999999999994 74.29999999999998 C 391.398228899644 75.86344387067314 389.87120100412096 77.07812515120283 388.09999999999997 77.79999999999998 C 386.29999999999995 78.59999999999998 383.99999999999994 78.99999999999999 381.29999999999995 78.99999999999999 C 378.69999999999993 78.99999999999999 376.4 78.59999999999998 374.49999999999994 77.79999999999998 C 372.49999999999994 76.99999999999999 371.09999999999997 75.79999999999998 369.99999999999994 74.29999999999998 C 368.8875715111303 72.64462650815618 368.29554663376894 70.6944269121422 368.29999999999995 68.69999999999999 L 374.29999999999995 68.69999999999999 C 374.3724037320428 70.82066325227076 375.7754492825316 72.66466597577033 377.79999999999995 73.29999999999998 C 378.79999999999995 73.69999999999999 379.99999999999994 73.89999999999998 381.19999999999993 73.89999999999998 C 382.49999999999994 73.89999999999998 383.69999999999993 73.69999999999997 384.69999999999993 73.29999999999998 C 385.69999999999993 72.89999999999998 386.49999999999994 72.29999999999998 387.0999999999999 71.59999999999998 C 387.61928851253873 70.9076153166149 387.8999999999999 70.06548085423134 387.8999999999999 69.19999999999997 C 387.8999999999999 68.29999999999997 387.69999999999993 67.59999999999998 387.19999999999993 66.99999999999997 C 386.556032779136 66.4543075481816 385.851395809703 65.98454956855959 385.0999999999999 65.59999999999997 L 381.8999999999999 64.59999999999997 L 378.0999999999999 63.599999999999966 C 375.2999999999999 62.89999999999996 373.0999999999999 61.89999999999996 371.4999999999999 60.39999999999996 C 369.88315216064603 58.95786421696419 369.00165992883467 56.86432016641217 369.0999999999999 54.69999999999996 C 369.08435614923275 52.88895118077198 369.68369611088775 51.126186587668975 370.7999999999999 49.69999999999997 C 371.87479754783743 48.15136441481783 373.3654304550263 46.93805856012921 375.0999999999999 46.19999999999996 C 377.0999999999999 45.39999999999996 379.0999999999999 44.99999999999996 381.4999999999999 44.99999999999996 C 383.7999999999999 44.99999999999996 385.89999999999986 45.399999999999956 387.6999999999999 46.19999999999996 C 389.4999999999999 46.99999999999996 390.89999999999986 48.19999999999996 391.9999999999999 49.59999999999996 C 392.9999999999999 50.99999999999996 393.4999999999999 52.59999999999996 393.4999999999999 54.59999999999996 L 387.6999999999999 54.59999999999996 z" stroke-linecap="round" />
</g>
</svg>