<?xml version="1.0" encoding="UTF-8" standalone="no" ?>
<!DOCTYPE svg PUBLIC "-//W3C//DTD SVG 1.1//EN" "http://www.w3.org/Graphics/SVG/1.1/DTD/svg11.dtd">
<svg xmlns="http://www.w3.org/2000/svg" xmlns:xlink="http://www.w3.org/1999/xlink" version="1.1" width="640" height="704.84587" viewBox="0 0 640 704.84587" xml:space="preserve">
<desc>Created with Fabric.js 5.3.0</desc>
<defs>
</defs>
<g transform="matrix(1 0 0 1 320 352.422935)" id="Yp3bJyemk4E9qvzsGp8zR"  >
<g style="" vector-effect="non-scaling-stroke"   >
		<g transform="matrix(2.4855280399 0 0 2.4855280399 0 0)" id="pkmF59sFSH5V1maf2D7ze"  >
<path style="stroke: none; stroke-width: 1; stroke-dasharray: none; stroke-linecap: butt; stroke-dashoffset: 0; stroke-linejoin: miter; stroke-miterlimit: 4; fill: rgb(255,255,255); fill-rule: nonzero; opacity: 1;" vector-effect="non-scaling-stroke"  transform=" translate(-127.9999468117, -140.9734036208)" d="M 116.504 3.58 C 123.46600000000001 -0.4049999999999998 132.534 -0.42300000000000004 139.49 3.58 C 174.485 23.354 209.491 43.097 244.48000000000002 62.882999999999996 C 251.061 66.58999999999999 255.46300000000002 73.914 255.39600000000002 81.497 L 255.39600000000002 200.465 C 255.44500000000002 208.362 250.608 215.861 243.66500000000002 219.484 C 208.78500000000003 239.149 173.923 258.838 139.04900000000004 278.503 C 131.94300000000004 282.566 122.69300000000004 282.253 115.80900000000004 277.85699999999997 C 105.35200000000003 271.79499999999996 94.87700000000004 265.763 84.41900000000004 259.707 C 82.28200000000004 258.433 79.87300000000003 257.419 78.36400000000003 255.34699999999998 C 79.69800000000004 253.54899999999998 82.08300000000003 253.325 84.02100000000003 252.54 C 88.38600000000002 251.152 92.39500000000002 248.92399999999998 96.40500000000003 246.762 C 97.41900000000003 246.068 98.65700000000002 246.334 99.62900000000003 246.955 C 108.57100000000003 252.08200000000002 117.43400000000003 257.358 126.40600000000003 262.43600000000004 C 128.32000000000002 263.54100000000005 130.25800000000004 262.074 131.89400000000003 261.16200000000003 C 166.12200000000004 241.81700000000004 200.39200000000005 222.54500000000004 234.61400000000003 203.19400000000002 C 235.88200000000003 202.584 236.58300000000003 201.23800000000003 236.48000000000005 199.84900000000002 C 236.50400000000005 160.604 236.48600000000005 121.35200000000002 236.49200000000005 82.10700000000001 C 236.63700000000006 80.53100000000002 235.72500000000005 79.08200000000001 234.30000000000004 78.43700000000001 C 199.54100000000005 58.86200000000001 164.80000000000004 39.25700000000001 130.04700000000003 19.677000000000014 C 128.81453272796145 18.829693001962177 127.18794552976624 18.82730914187689 125.95300000000003 19.671000000000017 C 91.2 39.257 56.465 58.88 21.712 78.454 C 20.292 79.1 19.339 80.52499999999999 19.508 82.107 C 19.514 121.352 19.508 160.60399999999998 19.508 199.85500000000002 C 19.384576710114974 201.2430594941096 20.138771060694772 202.5611039067895 21.398 203.15800000000002 C 30.671999999999997 208.41700000000003 39.958 213.639 49.238 218.88000000000002 C 54.466 221.69400000000002 60.885 223.366 66.645 221.21000000000004 C 71.728 219.38700000000003 75.291 214.20000000000005 75.19399999999999 208.80300000000003 C 75.24199999999999 169.78700000000003 75.16999999999999 130.76500000000004 75.22999999999999 91.75500000000002 C 75.103 90.02300000000002 76.746 88.59200000000003 78.42999999999999 88.75500000000002 C 82.886 88.72500000000002 87.34799999999998 88.69500000000002 91.80399999999999 88.76700000000002 C 93.66399999999999 88.72500000000002 94.94399999999999 90.59000000000002 94.71399999999998 92.33500000000002 C 94.69599999999998 131.598 94.76199999999999 170.86200000000002 94.68399999999998 210.12500000000003 C 94.69599999999998 220.58900000000003 90.39699999999998 231.97500000000002 80.71799999999999 237.09500000000003 C 68.79399999999998 243.27200000000002 54.05599999999999 241.96200000000002 42.27599999999999 236.03900000000002 C 32.07799999999999 230.949 22.34599999999999 224.942 12.32899999999999 219.489 C 5.368 215.886 0.555 208.357 0.604 200.466 L 0.604 81.497 C 0.531 73.757 5.108 66.3 11.893999999999998 62.647 C 46.768 42.966 81.636 23.27 116.504 3.58 z" stroke-linecap="round" />
</g>
		<g transform="matrix(2.4855280399 0 0 2.4855280399 76.8144854862 4.0207997197)" id="DVaKoFJpdad5xo7ie5Rzs"  >
<path style="stroke: none; stroke-width: 1; stroke-dasharray: none; stroke-linecap: butt; stroke-dashoffset: 0; stroke-linejoin: miter; stroke-miterlimit: 4; fill: rgb(255,255,255); fill-rule: nonzero; opacity: 1;" vector-effect="non-scaling-stroke"  transform=" translate(-158.9046416103, -142.5910879338)" d="M 146.928 85.99 C 162.138 85.011 178.421 85.41 192.108 92.90299999999999 C 202.705 98.645 208.58 110.696 208.767 122.469 C 208.471 124.05699999999999 206.811 124.93299999999999 205.295 124.824 C 200.88199999999998 124.818 196.468 124.884 192.05499999999998 124.794 C 190.18299999999996 124.866 189.09499999999997 123.14 188.85999999999999 121.485 C 187.59199999999998 115.852 184.51999999999998 110.273 179.218 107.556 C 171.07899999999998 103.481 161.642 103.68599999999999 152.767 103.771 C 146.28799999999998 104.115 139.321 104.676 133.832 108.486 C 129.618 111.372 128.338 117.19800000000001 129.84199999999998 121.89 C 131.26 125.259 135.14899999999997 126.346 138.331 127.348 C 156.661 132.142 176.08499999999998 131.665 194.065 137.974 C 201.509 140.546 208.791 145.546 211.339 153.33999999999997 C 214.672 163.78599999999997 213.211 176.27199999999996 205.779 184.658 C 199.752 191.559 190.974 195.315 182.219 197.355 C 170.572 199.952 158.48499999999999 200.018 146.65699999999998 198.86499999999998 C 135.53499999999997 197.59699999999998 123.96099999999998 194.67499999999998 115.37499999999999 187.09699999999998 C 108.03299999999999 180.72199999999998 104.44699999999999 170.789 104.80299999999998 161.20199999999997 C 104.88799999999998 159.58299999999997 106.49999999999999 158.45399999999998 108.05099999999999 158.58699999999996 C 112.49499999999999 158.55099999999996 116.939 158.53899999999996 121.38299999999998 158.59299999999996 C 123.15799999999999 158.46599999999995 124.47399999999998 159.99999999999997 124.56499999999998 161.67299999999997 C 125.38499999999998 167.03999999999996 127.40199999999999 172.67299999999997 132.082 175.85499999999996 C 141.114 181.68199999999996 152.447 181.28299999999996 162.789 181.44599999999997 C 171.357 181.06599999999997 180.975 180.95099999999996 187.96699999999998 175.28799999999998 C 191.65599999999998 172.058 192.749 166.654 191.75199999999998 162.005 C 190.67199999999997 158.07999999999998 186.56599999999997 156.251 183.04 155.055 C 164.945 149.33100000000002 145.304 151.40800000000002 127.38399999999999 144.935 C 120.10899999999998 142.364 113.07399999999998 137.50300000000001 110.27899999999998 130.029 C 106.37899999999998 119.451 108.16599999999998 106.36699999999999 116.37699999999998 98.264 C 124.38299999999998 90.204 135.93999999999997 87.1 146.92799999999997 85.98899999999999 z" stroke-linecap="round" />
</g>
</g>
</g>
</svg>